<svg xmlns="http://www.w3.org/2000/svg" viewBox="0 0 240 240" role="img" aria-hidden="true">
<defs>
<radialGradient id="gal" cx="50%" cy="50%" r="50%"><stop offset="0" stop-color="rgb(160,202,194)" stop-opacity=".55"/><stop offset="1" stop-color="#2c8a78" stop-opacity="0"/></radialGradient>
<filter id="sal" x="-20%" y="-20%" width="140%" height="150%"><feDropShadow dx="0" dy="6" stdDeviation="6" flood-color="rgb(18,55,48)" flood-opacity=".28"/></filter>
</defs>
<circle cx="120" cy="120" r="112" fill="url(#gal)"/>
<g filter="url(#sal)"><polygon points="78.0,34.0 162.0,34.0 152.0,53.0 88.0,53.0" fill="rgb(70,152,137)" stroke="rgba(255,255,255,.28)" stroke-width=".8" stroke-linejoin="round" /><polygon points="162.0,34.0 186.0,58.0 171.0,72.0 152.0,53.0" fill="rgb(41,130,113)" stroke="rgba(255,255,255,.28)" stroke-width=".8" stroke-linejoin="round" /><polygon points="186.0,58.0 186.0,182.0 171.0,168.0 171.0,72.0" fill="rgb(33,104,91)" stroke="rgba(255,255,255,.28)" stroke-width=".8" stroke-linejoin="round" /><polygon points="186.0,182.0 162.0,206.0 152.0,187.0 171.0,168.0" fill="rgb(30,94,82)" stroke="rgba(255,255,255,.28)" stroke-width=".8" stroke-linejoin="round" /><polygon points="162.0,206.0 78.0,206.0 88.0,187.0 152.0,187.0" fill="rgb(33,104,91)" stroke="rgba(255,255,255,.28)" stroke-width=".8" stroke-linejoin="round" /><polygon points="78.0,206.0 54.0,182.0 69.0,168.0 88.0,187.0" fill="rgb(41,130,113)" stroke="rgba(255,255,255,.28)" stroke-width=".8" stroke-linejoin="round" /><polygon points="54.0,182.0 54.0,58.0 69.0,72.0 69.0,168.0" fill="rgb(70,152,137)" stroke="rgba(255,255,255,.28)" stroke-width=".8" stroke-linejoin="round" /><polygon points="54.0,58.0 78.0,34.0 88.0,53.0 69.0,72.0" fill="rgb(86,161,147)" stroke="rgba(255,255,255,.28)" stroke-width=".8" stroke-linejoin="round" /><polygon points="88.0,53.0 152.0,53.0 142.0,72.0 98.0,72.0" fill="rgb(79,157,142)" stroke="rgba(255,255,255,.28)" stroke-width=".8" stroke-linejoin="round" /><polygon points="152.0,53.0 171.0,72.0 156.0,86.0 142.0,72.0" fill="rgb(43,135,118)" stroke="rgba(255,255,255,.28)" stroke-width=".8" stroke-linejoin="round" /><polygon points="171.0,72.0 171.0,168.0 156.0,154.0 156.0,86.0" fill="rgb(35,110,96)" stroke="rgba(255,255,255,.28)" stroke-width=".8" stroke-linejoin="round" /><polygon points="171.0,168.0 152.0,187.0 142.0,168.0 156.0,154.0" fill="rgb(32,99,86)" stroke="rgba(255,255,255,.28)" stroke-width=".8" stroke-linejoin="round" /><polygon points="152.0,187.0 88.0,187.0 98.0,168.0 142.0,168.0" fill="rgb(35,110,96)" stroke="rgba(255,255,255,.28)" stroke-width=".8" stroke-linejoin="round" /><polygon points="88.0,187.0 69.0,168.0 84.0,154.0 98.0,168.0" fill="rgb(43,135,118)" stroke="rgba(255,255,255,.28)" stroke-width=".8" stroke-linejoin="round" /><polygon points="69.0,168.0 69.0,72.0 84.0,86.0 84.0,154.0" fill="rgb(79,157,142)" stroke="rgba(255,255,255,.28)" stroke-width=".8" stroke-linejoin="round" /><polygon points="69.0,72.0 88.0,53.0 98.0,72.0 84.0,86.0" fill="rgb(95,166,152)" stroke="rgba(255,255,255,.28)" stroke-width=".8" stroke-linejoin="round" /><polygon points="98.0,72.0 142.0,72.0 132.0,91.0 108.0,91.0" fill="rgb(87,162,148)" stroke="rgba(255,255,255,.28)" stroke-width=".8" stroke-linejoin="round" /><polygon points="142.0,72.0 156.0,86.0 141.0,100.0 132.0,91.0" fill="rgb(48,140,123)" stroke="rgba(255,255,255,.28)" stroke-width=".8" stroke-linejoin="round" /><polygon points="156.0,86.0 156.0,154.0 141.0,140.0 141.0,100.0" fill="rgb(37,115,100)" stroke="rgba(255,255,255,.28)" stroke-width=".8" stroke-linejoin="round" /><polygon points="156.0,154.0 142.0,168.0 132.0,149.0 141.0,140.0" fill="rgb(33,105,91)" stroke="rgba(255,255,255,.28)" stroke-width=".8" stroke-linejoin="round" /><polygon points="142.0,168.0 98.0,168.0 108.0,149.0 132.0,149.0" fill="rgb(37,115,100)" stroke="rgba(255,255,255,.28)" stroke-width=".8" stroke-linejoin="round" /><polygon points="98.0,168.0 84.0,154.0 99.0,140.0 108.0,149.0" fill="rgb(48,140,123)" stroke="rgba(255,255,255,.28)" stroke-width=".8" stroke-linejoin="round" /><polygon points="84.0,154.0 84.0,86.0 99.0,100.0 99.0,140.0" fill="rgb(87,162,148)" stroke="rgba(255,255,255,.28)" stroke-width=".8" stroke-linejoin="round" /><polygon points="84.0,86.0 98.0,72.0 108.0,91.0 99.0,100.0" fill="rgb(103,171,158)" stroke="rgba(255,255,255,.28)" stroke-width=".8" stroke-linejoin="round" /><polygon points="108.0,91.0 132.0,91.0 141.0,100.0 141.0,140.0 132.0,149.0 108.0,149.0 99.0,140.0 99.0,100.0" fill="rgb(107,173,161)" stroke="rgba(255,255,255,.28)" stroke-width=".8" stroke-linejoin="round" /><path d="M78 66 L112 66 L78 112 Z" fill="#fff" opacity=".32"/></g>
</svg>